<svg xmlns="http://www.w3.org/2000/svg" xmlns:xlink="http://www.w3.org/1999/xlink" viewBox="0 0 1168 372.96"><defs><linearGradient id="a" x1="157.73" x2="156.31" y1="373.76" y2="61.9" gradientTransform="matrix(1 0 0 -1 0 374)" gradientUnits="userSpaceOnUse"><stop offset="0" stop-color="#e6392a"/><stop offset="1" stop-color="#ff9d2d"/></linearGradient><linearGradient xlink:href="#a" id="b" x1="133.87" x2="133.87" y1="374.15" y2="61.79"/><linearGradient xlink:href="#a" id="c" x1="113.39" x2="113.39" y1="374.15" y2="61.79"/><linearGradient xlink:href="#a" id="d" x1="97.11" x2="97.11" y1="374.15" y2="61.64"/><linearGradient xlink:href="#a" id="e" x1="85.92" x2="85.92" y1="374.15" y2="61.74"/><linearGradient xlink:href="#a" id="f" x1="80.29" x2="80.29" y1="374.15" y2="61.68"/><linearGradient xlink:href="#a" id="g" x1="80.28" x2="80.28" y1="374.15" y2="61.73"/><linearGradient xlink:href="#a" id="h" x1="85.51" x2="85.51" y1="374.15" y2="61.78"/><linearGradient xlink:href="#a" id="i" x1="95.28" x2="95.28" y1="374.15" y2="61.53"/><linearGradient xlink:href="#a" id="j" x1="108.57" x2="108.57" y1="374.15" y2="61.65"/><linearGradient xlink:href="#a" id="k" x1="124.19" x2="124.19" y1="374.15" y2="61.79"/><linearGradient xlink:href="#a" id="l" x1="140.87" x2="140.87" y1="374.15" y2="61.79"/><linearGradient xlink:href="#a" id="m" x1="157.31" x2="157.31" y1="374.15" y2="61.74"/><linearGradient xlink:href="#a" id="n" x1="172.35" x2="172.35" y1="374.15" y2="61.75"/><linearGradient xlink:href="#a" id="o" x1="185.01" x2="185.01" y1="374.15" y2="61.58"/><linearGradient xlink:href="#a" id="p" x1="194.58" x2="194.58" y1="374.15" y2="61"/><linearGradient xlink:href="#a" id="q" x1="200.61" x2="200.61" y1="374.15" y2="61.41"/><linearGradient xlink:href="#a" id="r" x1="203" x2="203" y1="374.15" y2="61.75"/><linearGradient xlink:href="#a" id="s" x1="201.91" x2="201.91" y1="374.48" y2="61.34"/><linearGradient xlink:href="#a" id="t" x1="197.78" x2="197.78" y1="374.15" y2="61.24"/><linearGradient xlink:href="#a" id="u" x1="191.25" x2="191.25" y1="374.15" y2="61.4"/><linearGradient xlink:href="#a" id="v" x1="183.11" x2="183.11" y1="374.15" y2="61.51"/><linearGradient xlink:href="#a" id="w" x1="174.21" x2="174.21" y1="374.15" y2="61.65"/><linearGradient xlink:href="#a" id="x" x1="165.36" x2="165.36" y1="374.15" y2="61.79"/></defs><g style="isolation:isolate"><path fill="#bdbfbf" d="M144.62 186.48h25.37v186.48h-25.37V186.48z" style="isolation:isolate;mix-blend-mode:multiply"/><path fill="#bdbfbf" d="m145.05 189.76 12.26-3.28 12.25-3.29 46.87 174.91-24.51 6.57-46.87-174.91z" style="isolation:isolate;mix-blend-mode:multiply"/><path fill="#bdbfbf" d="m146.32 192.82 10.99-6.34 10.98-6.34 87.84 152.13-21.97 12.69-87.84-152.14z" style="isolation:isolate;mix-blend-mode:multiply"/><path fill="#bdbfbf" d="m148.34 195.45 8.97-8.97 8.97-8.97L286.67 297.9l-17.94 17.94-120.39-120.39z" style="isolation:isolate;mix-blend-mode:multiply"/><path fill="#bdbfbf" d="m150.96 197.46 6.35-10.98 6.34-10.99 142.77 82.43-12.68 21.97-142.78-82.43z" style="isolation:isolate;mix-blend-mode:multiply"/><path fill="#bdbfbf" d="m154.02 198.73 3.29-12.25 3.28-12.26 154.03 41.28-6.57 24.5-154.03-41.27z" style="isolation:isolate;mix-blend-mode:multiply"/><path fill="#bdbfbf" d="M157.31 199.16v-25.37h154.05v25.37H157.31z" style="isolation:isolate;mix-blend-mode:multiply"/><path fill="#bdbfbf" d="m160.59 198.73-3.28-12.25-3.29-12.26 143.59-38.47 6.57 24.51-143.59 38.47z" style="isolation:isolate;mix-blend-mode:multiply"/><path fill="#bdbfbf" d="m163.65 197.46-6.34-10.98-6.35-10.99 124.06-71.62 12.68 21.97-124.05 71.62z" style="isolation:isolate;mix-blend-mode:multiply"/><path fill="#bdbfbf" d="m166.28 195.45-8.97-8.97-8.97-8.97 97.47-97.47 17.94 17.94-97.47 97.47z" style="isolation:isolate;mix-blend-mode:multiply"/><path fill="#bdbfbf" d="m168.29 192.82-10.98-6.34-10.99-6.34 66.22-114.7 21.97 12.69-66.22 114.69z" style="isolation:isolate;mix-blend-mode:multiply"/><path fill="#bdbfbf" d="m169.56 189.76-12.25-3.28-12.26-3.29 32.88-122.7 24.51 6.57-32.88 122.7z" style="isolation:isolate;mix-blend-mode:multiply"/><path fill="#bdbfbf" d="M169.99 186.44h-25.37V64.81h25.37v121.63z" style="isolation:isolate;mix-blend-mode:multiply"/><path fill="#bdbfbf" d="m169.56 183.19-12.25 3.29-12.26 3.28L114.97 77.5l24.51-6.57 30.08 112.26z" style="isolation:isolate;mix-blend-mode:multiply"/><path fill="#bdbfbf" d="m168.29 180.14-10.98 6.34-10.99 6.34-55.41-95.97 21.97-12.69 55.41 95.98z" style="isolation:isolate;mix-blend-mode:multiply"/><path fill="#bdbfbf" d="m166.28 177.51-8.97 8.97-8.97 8.97-74.54-74.54 17.94-17.94 74.54 74.54z" style="isolation:isolate;mix-blend-mode:multiply"/><path fill="#bdbfbf" d="m163.65 175.49-6.34 10.99-6.35 10.98-86.61-50 12.69-21.97 86.61 50z" style="isolation:isolate;mix-blend-mode:multiply"/><path fill="#bdbfbf" d="m160.59 174.22-3.28 12.26-3.29 12.25-91.38-24.49 6.57-24.5 91.38 24.48z" style="isolation:isolate;mix-blend-mode:multiply"/><path fill="#bdbfbf" d="M157.31 173.79v25.37H68.1v-25.37h89.21z" style="isolation:isolate;mix-blend-mode:multiply"/><path fill="#bdbfbf" d="m154.02 174.22 3.29 12.26 3.28 12.25-80.94 21.69-6.57-24.51 80.94-21.69z" style="isolation:isolate;mix-blend-mode:multiply"/><path fill="#bdbfbf" d="m150.96 175.49 6.35 10.99 6.34 10.98-67.89 39.2-12.69-21.97 67.89-39.2z" style="isolation:isolate;mix-blend-mode:multiply"/><path fill="#bdbfbf" d="m148.34 177.51 8.97 8.97 8.97 8.97-51.62 51.61-17.94-17.94 51.62-51.61z" style="isolation:isolate;mix-blend-mode:multiply"/><path fill="#bdbfbf" d="m146.32 180.14 10.99 6.34 10.98 6.34-33.79 58.53-21.97-12.68 33.79-58.53z" style="isolation:isolate;mix-blend-mode:multiply"/><path fill="#bdbfbf" d="m145.05 183.19 12.26 3.29 12.25 3.28-16.09 60.07-24.51-6.57 16.09-60.07z" style="isolation:isolate;mix-blend-mode:multiply"/><path fill="url(#a)" d="M169.99 186.48h-25.37V0h25.37v186.48z" style="isolation:isolate;mix-blend-mode:multiply"/><path fill="url(#b)" d="m169.56 183.19-12.25 3.29-12.26 3.28-46.86-174.9 24.51-6.57 46.86 174.9z" style="isolation:isolate;mix-blend-mode:multiply"/><path fill="url(#c)" d="m168.29 180.14-10.98 6.34-10.99 6.34L58.49 40.69 80.46 28l87.83 152.14z" style="isolation:isolate;mix-blend-mode:multiply"/><path fill="url(#d)" d="m166.28 177.51-8.97 8.97-8.97 8.97-120.4-120.4 17.94-17.94 120.4 120.4z" style="isolation:isolate;mix-blend-mode:multiply"/><path fill="url(#e)" d="m163.65 175.49-6.34 10.99-6.35 10.98L8.19 115.03l12.69-21.97 142.77 82.43z" style="isolation:isolate;mix-blend-mode:multiply"/><path fill="url(#f)" d="m160.59 174.22-3.28 12.26-3.29 12.25L0 157.46l6.57-24.51 154.02 41.27z" style="isolation:isolate;mix-blend-mode:multiply"/><path fill="url(#g)" d="M157.31 173.79v25.37H3.25v-25.37h154.06z" style="isolation:isolate;mix-blend-mode:multiply"/><path fill="url(#h)" d="m154.02 174.22 3.29 12.26 3.28 12.25L17.01 237.2l-6.57-24.5 143.58-38.48z" style="isolation:isolate;mix-blend-mode:multiply"/><path fill="url(#i)" d="m150.96 175.49 6.35 10.99 6.34 10.98L39.6 269.09l-12.69-21.98 124.05-71.62z" style="isolation:isolate;mix-blend-mode:multiply"/><path fill="url(#j)" d="m148.34 177.51 8.97 8.97 8.97 8.97-97.47 97.47-17.94-17.94 97.47-97.47z" style="isolation:isolate;mix-blend-mode:multiply"/><path fill="url(#k)" d="m146.32 180.14 10.99 6.34 10.98 6.34-66.22 114.69-21.97-12.68 66.22-114.69z" style="isolation:isolate;mix-blend-mode:multiply"/><path fill="url(#l)" d="m145.05 183.19 12.26 3.29 12.25 3.28-32.88 122.71-24.5-6.57 32.87-122.71z" style="isolation:isolate;mix-blend-mode:multiply"/><path fill="url(#m)" d="M144.62 186.52h25.37v121.63h-25.37V186.52z" style="isolation:isolate;mix-blend-mode:multiply"/><path fill="url(#n)" d="m145.05 189.76 12.26-3.28 12.25-3.29 30.08 112.27-24.5 6.57-30.09-112.27z" style="isolation:isolate;mix-blend-mode:multiply"/><path fill="url(#o)" d="m146.32 192.82 10.99-6.34 10.98-6.34 55.41 95.97-21.97 12.68-55.41-95.97z" style="isolation:isolate;mix-blend-mode:multiply"/><path fill="url(#p)" d="m148.34 195.45 8.97-8.97 8.97-8.97 74.54 74.54-17.94 17.94-74.54-74.54z" style="isolation:isolate;mix-blend-mode:multiply"/><path fill="url(#q)" d="m150.96 197.46 6.35-10.98 6.34-10.99 86.61 50.01-12.68 21.97-86.62-50.01z" style="isolation:isolate;mix-blend-mode:multiply"/><path fill="url(#r)" d="m154.02 198.73 3.29-12.25 3.28-12.26 91.39 24.49-6.57 24.51-91.39-24.49z" style="isolation:isolate;mix-blend-mode:multiply"/><path fill="url(#s)" d="M157.31 199.16v-25.37h89.2v25.37h-89.2z" style="isolation:isolate;mix-blend-mode:multiply"/><path fill="url(#t)" d="m160.59 198.73-3.28-12.25-3.29-12.26 80.95-21.68 6.57 24.5-80.95 21.69z" style="isolation:isolate;mix-blend-mode:multiply"/><path fill="url(#u)" d="m163.65 197.46-6.34-10.98-6.35-10.99 67.9-39.2 12.68 21.98-67.89 39.19z" style="isolation:isolate;mix-blend-mode:multiply"/><path fill="url(#v)" d="m166.28 195.45-8.97-8.97-8.97-8.97 51.61-51.62 17.94 17.94-51.61 51.62z" style="isolation:isolate;mix-blend-mode:multiply"/><path fill="url(#w)" d="m168.29 192.82-10.98-6.34-10.99-6.34 33.8-58.54 21.97 12.69-33.8 58.53z" style="isolation:isolate;mix-blend-mode:multiply"/><path fill="url(#x)" d="m169.56 189.76-12.25-3.28-12.26-3.29 16.1-60.06 24.51 6.57-16.1 60.06z" style="isolation:isolate;mix-blend-mode:multiply"/><path fill="#1e1e28" d="M403.63 241.46c-7.48 0-14.68-1.1-21.6-3.29a69.5 69.5 0 0 1-19.83-10.13V201.8h12.91l2.79 19.32c3.66 2.25 7.62 4 11.9 5.23a49.47 49.47 0 0 0 13.84 1.86c5.68 0 10.46-.87 14.34-2.62 8.04-3.49 12.07-9.4 12.07-17.72 0-3.71-.9-7.03-2.7-9.96-1.8-2.87-4.77-5.39-8.9-7.55-4.14-2.17-9.78-4.07-16.92-5.7-8.21-1.91-15.33-4.56-21.35-7.93-11.87-6.69-17.81-16.06-17.81-28.1a29.7 29.7 0 0 1 5.15-17.21c3.37-5.07 8.1-9.06 14.18-11.98s13.16-4.39 21.27-4.39c8.61 0 16.21 1.31 22.83 3.93 6.61 2.61 12.05 5.78 16.33 9.49v24.56h-12.91l-2.79-17.55a32.7 32.7 0 0 0-9.45-5.06c-3.77-1.35-8.44-2.02-14.01-2.02-4.61 0-8.78.82-12.49 2.45-3.6 1.69-6.41 4.02-8.44 7s-3.04 6.5-3.04 10.55c0 3.54.93 6.64 2.78 9.28 3.37 5.01 11.87 9.2 25.48 12.57 26.27 6.53 39.41 19.02 39.41 37.47 0 6.58-1.77 12.41-5.32 17.47-3.54 5.12-8.54 9.11-14.98 11.98s-14.02 4.3-22.74 4.3Zm66.48-14.77v-65.23l-13.76-2.36v-10.72h30.38v78.31l13.76 2.36v10.63h-44.14v-10.63l13.76-2.36Zm-.84-100.84v-17.81h17.47v17.81h-17.47Zm73.25 46.24v54.6l13.76 2.36v10.63h-44.13v-10.63l13.75-2.36v-65.23l-13.75-2.36v-10.72h28.69l1.1 11.9a29.79 29.79 0 0 1 11.31-10.04c4.61-2.36 9.96-3.54 16.03-3.54s11.29 1.41 15.65 4.22c4.36 2.82 7.64 7.03 9.83 12.66a33.9 33.9 0 0 1 11.39-12.32c4.73-3.04 10.24-4.56 16.54-4.56 9.34 0 16.71 3.19 22.11 9.58 5.4 6.39 8.1 15.99 8.1 28.82v41.6l13.76 2.36v10.63h-44.22v-10.63l13.76-2.36v-41.77c0-9-1.55-15.37-4.64-19.11s-7.68-5.61-13.76-5.61-10.45 2.04-13.96 6.12c-3.52 4.08-5.56 9.21-6.12 15.4v44.98l13.76 2.36v10.63h-44.14v-10.63l13.76-2.36v-41.77c0-8.55-1.59-14.81-4.77-18.78s-7.78-5.95-13.8-5.95c-5.07 0-9.23 1.04-12.49 3.12s-5.77 5.01-7.51 8.78v-.02Zm157.58 58.14v31.48l14.52 2.36v10.72h-44.05v-10.72l12.91-2.36V161.46l-13.76-2.36v-10.72h28.02l1.52 11.14c6.25-8.55 14.99-12.83 26.24-12.83 7.59 0 14.04 2.02 19.32 6.08 5.34 4.11 9.42 9.83 12.24 17.17 2.81 7.34 4.22 15.94 4.22 25.78v1.77c0 8.72-1.41 16.4-4.22 23.04-2.87 6.58-6.95 11.71-12.24 15.4-5.29 3.69-11.65 5.53-19.07 5.53-11.08 0-19.63-3.74-25.65-11.22Zm20.51-1.77c7.88 0 13.84-2.87 17.89-8.61s6.08-13.19 6.08-22.36v-1.77c0-6.92-.9-13.08-2.7-18.48-1.8-5.34-4.49-9.52-8.06-12.53s-8.03-4.51-13.37-4.51c-4.73 0-8.78 1.07-12.15 3.21s-6.11 5.07-8.19 8.78v44.47a23.05 23.05 0 0 0 8.14 8.73c3.34 2.06 7.47 3.08 12.36 3.08Zm62.47-1.77V121.12l-13.75-2.36v-10.72h30.38v118.65l13.76 2.36v10.63h-44.13v-10.63l13.75-2.36h-.01ZM840 276.56c-1.29 0-2.98-.16-5.06-.46a53.8 53.8 0 0 1-4.81-.89l1.69-13.08c.96.11 2.28.21 3.97.3 1.69.09 2.84.13 3.46.13a10.7 10.7 0 0 0 8.65-4.05c2.22-2.7 4.29-6.38 6.2-11.05l3.97-9.62-32.32-77.38-9.79-1.35v-10.72h38.31v10.72l-11.05 1.69 17.8 45.65 4.3 11.9h.51l21.1-57.55-11.65-1.69v-10.72h37.55v10.72l-9.45 1.35-35.95 93.25a55.27 55.27 0 0 1-6.08 11.81c-2.42 3.43-5.36 6.13-8.82 8.1s-7.64 2.95-12.53 2.95Zm120.68-44.22v7.34h-37.64v-7.34l13.76-1.1v-105.9l-13.76-1.1v-7.43h51.81c8.61 0 15.95 1.49 22.03 4.47 12.32 6.13 18.48 16.6 18.48 31.39 0 7.26-1.58 13.56-4.73 18.9-3.15 5.4-7.74 9.58-13.76 12.53s-13.36 4.43-22.03 4.43h-27.93v42.7l13.75 1.1h.02Zm14.18-107h-27.93v54.77h27.93c10.13 0 17.72-2.6 22.79-7.81 5.06-5.2 7.59-11.69 7.59-19.45s-2.52-14.5-7.55-19.7c-5.03-5.2-12.64-7.81-22.83-7.81Zm84.85 107v7.34h-37.64v-7.34l13.76-1.1V116.56l-13.76-1.1v-7.43h23.88v56.29a33.37 33.37 0 0 1 12.03-13c5.03-3.09 10.95-4.64 17.76-4.64 9.62 0 17.01 2.97 22.15 8.9 5.15 5.94 7.72 15.2 7.72 27.81v47.84l13.76 1.1v7.34h-37.64v-7.34l13.75-1.1v-48.01c0-9.96-1.94-17.09-5.82-21.39s-9.28-6.46-16.2-6.46c-7.43 0-13.4 2.08-17.93 6.25-4.53 4.16-7.72 9.56-9.58 16.2v53.42l13.76 1.1Zm108.29 0v7.34h-37.64v-7.34l13.76-1.1V156.9l-13.76-1.1v-7.43h23.88v82.87l13.76 1.1Zm-13.76-124.3v14.6h-11.31v-14.6h11.31Z"/></g></svg>